<?xml version="1.0" standalone="no"?>
<!DOCTYPE svg PUBLIC "-//W3C//DTD SVG 20010904//EN"
 "http://www.w3.org/TR/2001/REC-SVG-20010904/DTD/svg10.dtd">
<svg version="1.0" xmlns="http://www.w3.org/2000/svg"
 width="1920.000000pt" height="1920.000000pt" viewBox="0 0 1920.000000 1920.000000"
 preserveAspectRatio="xMidYMid meet">

<g transform="translate(0.000000,1920.000000) scale(0.100000,-0.100000)"
fill="#000000" stroke="none">
<path d="M3255 14719 c77 -79 162 -166 189 -194 28 -27 116 -120 195 -205 80
-85 189 -200 241 -255 53 -55 123 -129 155 -165 33 -36 102 -110 155 -165 52
-55 174 -186 270 -290 96 -104 216 -232 265 -285 156 -166 314 -337 394 -424
42 -47 137 -151 211 -231 205 -222 313 -341 444 -487 66 -73 127 -140 136
-148 10 -8 61 -64 115 -125 54 -60 101 -112 105 -115 4 -3 46 -50 94 -105 48
-55 98 -109 109 -120 47 -44 159 -176 154 -181 -2 -3 -94 17 -203 45 -624 156
-723 181 -759 191 -48 12 -608 154 -648 164 -23 5 -9 -13 75 -97 57 -56 236
-240 398 -407 162 -168 412 -424 555 -570 144 -146 380 -388 525 -538 145
-150 268 -276 274 -280 6 -4 76 -75 156 -157 80 -83 312 -320 515 -528 204
-208 372 -383 374 -388 2 -7 -13 -9 -40 -5 -24 3 -89 10 -144 16 -55 6 -136
16 -180 21 -44 6 -98 12 -120 14 -22 2 -103 11 -180 20 -77 9 -158 18 -180 21
-65 6 -214 24 -298 36 -43 6 -80 8 -83 5 -3 -3 28 -31 68 -63 40 -32 75 -61
78 -64 7 -8 237 -199 295 -245 27 -22 61 -49 75 -61 14 -12 59 -49 100 -83 41
-34 104 -86 140 -116 182 -151 336 -279 429 -355 58 -47 125 -103 151 -125 26
-22 62 -52 81 -67 19 -14 50 -40 69 -56 19 -16 69 -57 110 -91 41 -34 104 -86
140 -116 58 -48 126 -104 259 -214 24 -20 65 -54 91 -76 25 -22 88 -74 139
-115 51 -41 98 -80 105 -86 6 -5 38 -32 72 -60 166 -134 330 -269 334 -274 3
-3 27 -24 55 -45 27 -22 65 -53 83 -70 19 -16 38 -30 43 -30 4 0 15 -9 24 -20
9 -11 13 -13 9 -5 -7 13 -6 13 9 1 10 -8 15 -16 13 -19 -8 -7 77 -71 86 -66 5
3 7 2 6 -3 -3 -10 33 -53 46 -53 5 0 15 -8 22 -17 7 -10 16 -18 21 -18 9 0 20
-9 82 -65 59 -53 104 -85 114 -82 5 1 6 -2 3 -7 -4 -5 -1 -13 6 -18 13 -8 18
-9 39 -12 5 0 8 -5 5 -10 -3 -5 1 -14 9 -21 8 -7 15 -9 15 -6 0 4 14 -9 31
-29 34 -38 50 -43 69 -20 7 8 18 15 24 15 6 0 3 -5 -7 -11 -15 -9 -16 -13 -5
-27 12 -15 11 -16 -4 -3 -22 16 -24 -1 -3 -19 8 -7 15 -9 15 -6 0 4 16 -9 35
-29 22 -23 39 -34 47 -29 7 4 10 4 6 -1 -8 -9 34 -45 52 -45 6 0 8 -4 5 -10
-3 -5 -3 -10 2 -10 4 0 28 -19 53 -41 25 -23 55 -45 68 -50 13 -5 21 -12 19
-16 -3 -5 1 -14 9 -21 9 -8 14 -9 14 -2 0 6 5 8 10 5 6 -4 8 -10 6 -14 -3 -4
15 -24 39 -44 42 -36 44 -36 39 -12 -2 14 0 34 6 44 8 16 6 19 -14 17 -13 0
-22 -5 -18 -10 3 -5 -2 -6 -12 -3 -11 5 -15 3 -10 -4 4 -7 1 -10 -7 -7 -8 3
-14 9 -14 14 0 15 -16 35 -24 30 -4 -3 -8 1 -8 8 0 8 6 12 12 9 8 -2 12 5 11
19 -1 18 -7 23 -31 25 -25 2 -27 0 -12 -8 9 -6 22 -7 27 -4 6 3 10 2 10 -3 0
-18 -29 -21 -57 -7 -15 8 -21 15 -13 15 10 0 11 3 4 8 -7 4 -11 18 -10 32 1
14 -3 28 -9 32 -15 11 -47 9 -40 -2 3 -5 -4 -10 -16 -10 -18 0 -19 2 -9 15 11
13 10 14 -5 9 -15 -6 -16 -4 -6 14 17 32 13 37 -9 12 -11 -13 -23 -20 -27 -17
-3 4 -2 7 2 7 5 0 0 7 -11 15 -10 8 -14 15 -7 15 6 0 15 -5 18 -10 4 -6 14 -1
25 12 13 17 15 25 7 30 -7 5 -3 8 11 8 16 0 22 6 22 23 1 28 22 57 44 57 11 0
16 9 16 28 0 20 12 39 40 65 22 20 40 41 40 47 0 19 142 170 160 170 7 0 -8
16 -34 35 -25 20 -46 39 -46 44 0 4 -12 13 -26 20 -20 9 -30 9 -43 -1 -13 -10
-14 -10 -3 2 16 19 15 33 -2 27 -8 -3 -16 2 -19 12 -4 16 -65 72 -155 141 -18
14 -49 40 -70 58 -20 18 -84 72 -142 120 -58 47 -116 96 -130 108 -14 12 -59
50 -100 84 -146 119 -225 185 -235 195 -5 6 -32 29 -60 50 -27 22 -52 42 -55
45 -3 3 -30 25 -60 50 -30 25 -57 47 -60 50 -3 3 -30 25 -60 50 -30 25 -57 47
-60 50 -3 3 -27 23 -55 45 -50 40 -176 145 -185 156 -3 3 -22 18 -42 33 -21
16 -36 31 -33 35 2 4 53 2 112 -5 208 -25 318 -37 348 -39 47 -3 150 -14 275
-30 211 -27 260 -31 258 -24 -2 4 -152 160 -333 346 -182 186 -465 478 -630
648 -260 270 -388 401 -721 738 -269 272 -656 681 -648 684 8 3 773 -186 1157
-286 65 -17 128 -31 139 -31 23 0 25 -4 -142 180 -105 115 -263 290 -385 425
-49 55 -97 107 -105 115 -8 8 -55 60 -105 115 -49 55 -99 109 -110 120 -12 11
-79 85 -149 165 -71 80 -143 159 -160 175 -31 30 -203 217 -261 284 -16 19
-46 50 -65 70 -20 20 -97 104 -172 187 -75 83 -161 176 -190 206 -94 98 -129
140 -123 146 3 4 10 0 15 -8 5 -8 12 -11 15 -8 14 13 -8 29 -31 24 -13 -4 -24
-3 -24 1 0 5 -25 34 -54 66 -72 78 -69 112 16 183 7 6 25 24 39 40 14 16 35
34 45 41 17 10 16 11 -6 6 -20 -5 -23 -3 -13 7 10 11 26 7 86 -21 l74 -35 -28
-13 c-16 -7 -29 -17 -29 -23 0 -6 11 -3 25 6 28 19 70 22 59 4 -4 -6 -3 -8 4
-5 5 4 27 -2 49 -13 21 -10 144 -72 273 -136 129 -64 300 -149 380 -189 555
-278 1944 -965 1950 -965 5 0 -21 51 -57 113 -36 61 -74 128 -85 147 -11 19
-60 103 -108 186 -49 83 -97 166 -108 185 -11 19 -38 66 -60 104 -23 39 -71
122 -107 185 -64 110 -75 130 -133 230 l-27 45 45 -26 c25 -15 128 -70 230
-124 102 -54 232 -123 290 -155 58 -31 162 -87 232 -123 70 -37 167 -89 215
-115 48 -27 140 -76 203 -110 63 -33 144 -76 178 -96 35 -20 66 -36 68 -36 2
0 93 -48 201 -106 109 -59 209 -112 223 -120 14 -7 70 -37 125 -67 55 -30 138
-74 185 -99 47 -25 149 -79 228 -122 78 -42 206 -110 285 -152 78 -42 175 -94
215 -116 l72 -40 -19 49 c-11 26 -40 98 -66 158 -25 61 -71 171 -101 245 -30
74 -59 144 -64 155 -6 11 -33 76 -61 145 -28 69 -56 137 -62 152 -17 40 -2 44
40 12 21 -16 72 -52 113 -80 41 -27 140 -95 220 -149 80 -54 195 -132 255
-173 61 -41 111 -79 113 -83 2 -5 8 -9 13 -9 4 0 52 -30 106 -67 54 -37 136
-93 183 -124 189 -128 516 -349 530 -359 8 -5 37 -25 64 -44 27 -19 54 -32 59
-29 6 3 7 1 3 -5 -4 -6 4 -16 16 -23 23 -12 126 -80 276 -182 45 -31 82 -52
82 -47 0 8 -49 42 -107 73 -18 9 -33 22 -33 27 0 6 -7 10 -15 10 -21 0 -19 13
5 28 11 7 20 21 20 32 0 11 14 33 30 48 16 16 30 37 30 46 0 9 5 16 10 16 6 0
10 7 10 15 0 14 38 64 68 89 7 6 25 24 40 40 15 16 33 35 40 42 6 7 12 18 12
24 0 6 14 25 30 42 31 30 38 48 19 48 -5 0 -8 -4 -5 -8 3 -5 -5 -8 -17 -7 -12
1 -21 5 -19 8 1 4 5 13 8 22 5 12 9 12 28 0 13 -8 26 -12 31 -8 4 5 5 2 1 -4
-4 -7 -3 -13 2 -13 6 0 8 -10 6 -22 l-5 -23 10 23 c12 27 21 29 14 4 -6 -23
42 -58 60 -44 7 5 21 6 32 1 13 -5 15 -8 5 -8 -13 -1 -13 -2 0 -11 24 -15 32
-12 20 9 -5 11 -20 23 -32 27 -13 4 -36 17 -51 30 -16 13 -32 22 -37 19 -4 -3
-10 4 -13 15 -4 14 -10 18 -23 13 -12 -4 -15 -3 -10 5 6 11 -5 17 -26 13 -5 0
-8 6 -8 14 0 9 -6 12 -17 8 -11 -4 -14 -3 -9 5 9 15 -18 16 -44 2 -13 -7 -21
-7 -25 0 -4 6 -3 9 2 8 4 -1 19 2 32 6 18 6 20 10 10 17 -8 4 -19 3 -26 -3
-10 -8 -12 -7 -7 5 7 18 -100 92 -118 81 -6 -4 -8 -3 -4 4 8 14 -50 55 -65 46
-7 -4 -9 -3 -5 4 10 16 -15 27 -26 11 -8 -11 -9 -10 -4 3 7 23 -93 91 -120 82
-13 -4 -15 -3 -7 3 16 12 -82 87 -100 77 -7 -4 -9 -3 -4 1 9 11 -83 76 -96 68
-6 -3 -7 -2 -4 4 7 12 -49 46 -63 38 -6 -4 -9 -1 -8 5 2 7 -9 21 -24 33 -24
18 -29 18 -45 6 -16 -13 -17 -12 -5 3 12 14 10 19 -15 35 -15 9 -31 22 -34 27
-4 5 -13 5 -20 1 -8 -5 -11 -5 -7 0 4 4 -47 45 -115 91 -67 46 -126 87 -132
91 -5 5 -64 45 -130 89 -152 103 -307 210 -321 222 -5 5 -21 15 -35 22 -13 7
-26 16 -29 20 -3 4 -36 27 -75 53 -38 25 -108 72 -155 105 -362 249 -573 392
-580 392 -5 0 -10 4 -12 8 -2 8 -188 138 -276 194 -15 10 -34 22 -42 28 -17
12 -204 141 -320 220 -265 181 -503 344 -555 380 -195 136 -336 228 -332 218
238 -574 311 -749 322 -773 42 -92 145 -353 145 -366 0 -6 -15 -2 -32 9 -18
11 -73 41 -123 67 -134 70 -351 187 -522 281 -83 46 -154 84 -156 84 -3 0 -65
33 -138 73 -74 41 -208 113 -299 162 -91 48 -217 116 -280 150 -63 34 -178 96
-255 137 -77 41 -205 110 -285 153 -80 43 -193 104 -252 137 -59 32 -131 70
-160 85 -29 14 -87 45 -128 68 -41 23 -120 66 -175 95 -55 29 -139 75 -188
101 -48 27 -89 49 -92 49 -3 0 -40 20 -83 44 -42 24 -117 65 -167 91 -49 26
-139 74 -198 107 -59 33 -110 58 -113 55 -3 -2 8 -26 25 -53 33 -56 121 -207
276 -474 59 -102 138 -237 175 -300 37 -63 77 -131 88 -150 11 -19 57 -98 102
-175 127 -216 172 -296 167 -301 -7 -7 -3006 1496 -3657 1833 -102 53 -255
132 -340 176 -85 44 -202 106 -260 137 -187 103 -186 104 -35 -51z m3560
-2509 c3 -5 1 -10 -4 -10 -6 0 -11 5 -11 10 0 6 2 10 4 10 3 0 8 -4 11 -10z
m-125 -170 c0 -5 -4 -10 -10 -10 -5 0 -10 5 -10 10 0 6 5 10 10 10 6 0 10 -4
10 -10z m40 -50 c0 -5 -2 -10 -4 -10 -3 0 -8 5 -11 10 -3 6 -1 10 4 10 6 0 11
-4 11 -10z m7263 -1553 c-7 -11 -33 13 -33 29 0 11 5 10 18 -3 11 -10 17 -22
15 -26z m-488 -287 c3 -5 1 -10 -4 -10 -6 0 -11 5 -11 10 0 6 2 10 4 10 3 0 8
-4 11 -10z m85 -74 c0 -2 -9 -6 -20 -9 -11 -3 -20 -1 -20 4 0 5 9 9 20 9 11 0
20 -2 20 -4z m-3320 -3655 c0 -5 -7 -11 -14 -14 -10 -4 -13 -1 -9 9 6 15 23
19 23 5z m-405 -361 c3 -5 1 -10 -4 -10 -6 0 -11 5 -11 10 0 6 2 10 4 10 3 0
8 -4 11 -10z m53 -45 c-3 -3 -9 2 -12 12 -6 14 -5 15 5 6 7 -7 10 -15 7 -18z
m71 -71 c4 3 8 -1 8 -9 0 -11 -4 -12 -14 -4 -7 6 -12 19 -12 28 1 13 2 13 6
-2 2 -9 8 -15 12 -13z m165 -110 c20 -8 21 -21 1 -21 -8 0 -16 6 -19 14 -6 15
-4 15 18 7z m61 -14 c3 -5 -1 -10 -9 -10 -9 0 -16 5 -16 10 0 6 4 10 9 10 6 0
13 -4 16 -10z m87 -115 c2 -19 0 -31 -4 -27 -13 13 -20 62 -9 62 5 0 11 -16
13 -35z m161 -132 c-10 -3 -10 -10 -2 -26 12 -22 12 -22 -8 -2 -19 19 -13 36
12 34 6 0 4 -3 -2 -6z"/>
<path d="M6988 12123 c7 -3 16 -2 19 1 4 3 -2 6 -13 5 -11 0 -14 -3 -6 -6z"/>
<path d="M7020 12086 c0 -2 7 -6 15 -10 8 -3 15 -1 15 4 0 6 -7 10 -15 10 -8
0 -15 -2 -15 -4z"/>
<path d="M6960 11985 c0 -8 4 -15 9 -15 5 0 14 7 21 15 10 13 9 15 -9 15 -12
0 -21 -6 -21 -15z"/>
<path d="M6760 11959 c7 -11 14 -19 16 -16 7 7 -7 37 -17 37 -6 0 -5 -9 1 -21z"/>
<path d="M6792 11960 c0 -14 2 -19 5 -12 2 6 2 18 0 25 -3 6 -5 1 -5 -13z"/>
<path d="M6845 11913 c11 -3 24 -10 28 -17 6 -7 7 -6 4 4 -2 8 -14 16 -28 17
-19 1 -20 1 -4 -4z"/>
<path d="M6835 11880 c3 -5 8 -10 11 -10 2 0 4 5 4 10 0 6 -5 10 -11 10 -5 0
-7 -4 -4 -10z"/>
<path d="M13855 10500 c-3 -6 1 -7 9 -4 18 7 21 14 7 14 -6 0 -13 -4 -16 -10z"/>
<path d="M13935 10420 c10 -11 20 -18 23 -15 7 6 -18 35 -31 35 -5 0 -2 -9 8
-20z"/>
<path d="M13990 10414 l-25 -14 26 2 c14 1 26 8 26 15 0 7 -1 13 -1 12 -1 -1
-12 -7 -26 -15z"/>
<path d="M14083 10388 c-2 -15 3 -18 20 -13 19 5 20 4 5 -5 -16 -10 -16 -12 0
-29 12 -12 22 -15 34 -9 21 10 47 11 33 0 -5 -4 -10 -28 -11 -54 0 -42 2 -46
18 -37 10 6 23 7 28 4 6 -3 10 -1 10 4 0 6 -4 11 -10 11 -5 0 -10 4 -10 10 0
5 8 7 18 4 14 -5 14 -4 2 5 -8 5 -12 13 -8 16 3 3 13 -1 21 -10 17 -17 27 -19
27 -7 0 5 -13 18 -30 30 -23 18 -28 19 -23 5 4 -11 3 -14 -5 -9 -8 5 -10 2 -6
-8 4 -9 1 -16 -6 -16 -8 0 -11 11 -8 31 5 35 -19 54 -55 43 -19 -6 -20 -5 -9
8 10 13 8 18 -11 31 -21 14 -23 13 -24 -5z m107 -128 c0 -5 -4 -10 -10 -10 -5
0 -10 5 -10 10 0 6 5 10 10 10 6 0 10 -4 10 -10z"/>
<path d="M14087 10329 c7 -7 15 -10 18 -7 3 3 -2 9 -12 12 -14 6 -15 5 -6 -5z"/>
<path d="M14323 10214 c0 -7 3 -11 7 -9 4 2 12 -7 18 -20 7 -14 17 -25 24 -24
10 0 10 2 1 5 -7 3 -9 12 -6 20 5 13 9 12 27 -3 l21 -18 -19 22 c-15 18 -22
21 -33 11 -12 -10 -14 -9 -11 6 2 11 -3 20 -13 21 -9 2 -16 -3 -16 -11z"/>
<path d="M13671 9993 c-1 -7 8 -17 18 -23 25 -13 31 -13 31 0 0 6 -9 10 -19
10 -11 0 -22 6 -24 13 -4 9 -6 9 -6 0z"/>
<path d="M14726 9968 c3 -5 10 -6 15 -3 13 9 11 12 -6 12 -8 0 -12 -4 -9 -9z"/>
<path d="M14790 9936 c0 -2 7 -7 16 -10 8 -3 12 -2 9 4 -6 10 -25 14 -25 6z"/>
<path d="M13747 9916 c-4 -10 -1 -13 8 -9 8 3 12 9 9 14 -7 12 -11 11 -17 -5z"/>
<path d="M14830 9916 c0 -2 8 -10 18 -17 15 -13 16 -12 3 4 -13 16 -21 21 -21
13z"/>
<path d="M13783 9903 c-18 -7 -16 -23 2 -23 8 0 15 5 15 12 0 9 3 9 12 0 16
-16 28 -15 28 1 0 13 -35 19 -57 10z"/>
<path d="M14805 9901 c-3 -5 -2 -12 3 -15 5 -3 9 1 9 9 0 17 -3 19 -12 6z"/>
<path d="M13806 9871 c-3 -5 1 -11 9 -15 8 -3 15 -1 15 4 0 13 -18 22 -24 11z"/>
<path d="M13840 9830 c0 -11 1 -11 39 -15 23 -2 24 -2 6 11 -22 16 -45 18 -45
4z"/>
<path d="M13945 9790 c4 -6 11 -8 16 -5 14 9 11 15 -7 15 -8 0 -12 -5 -9 -10z"/>
<path d="M13970 9776 c0 -2 7 -7 16 -10 8 -3 12 -2 9 4 -6 10 -25 14 -25 6z"/>
<path d="M14108 9723 c7 -3 16 -2 19 1 4 3 -2 6 -13 5 -11 0 -14 -3 -6 -6z"/>
<path d="M14187 9669 c7 -7 15 -10 18 -7 3 3 -2 9 -12 12 -14 6 -15 5 -6 -5z"/>
<path d="M14265 9640 c-3 -6 1 -7 9 -4 18 7 21 14 7 14 -6 0 -13 -4 -16 -10z"/>
<path d="M14286 9622 c-2 -4 4 -8 14 -8 10 0 16 4 14 8 -3 4 -9 8 -14 8 -5 0
-11 -4 -14 -8z"/>
<path d="M14367 9589 c7 -7 15 -10 18 -7 3 3 -2 9 -12 12 -14 6 -15 5 -6 -5z"/>
<path d="M14396 9561 c-3 -5 2 -15 12 -22 15 -12 16 -12 5 2 -7 9 -10 19 -6
22 3 4 4 7 0 7 -3 0 -8 -4 -11 -9z"/>
<path d="M12710 8410 c-12 -7 -10 -9 7 -7 12 0 19 5 17 9 -6 10 -6 10 -24 -2z"/>
<path d="M12809 8372 c-11 -14 -11 -15 0 -5 14 12 41 7 41 -8 0 -4 -6 -6 -14
-3 -8 3 -17 1 -21 -5 -4 -7 0 -8 11 -4 11 4 15 3 10 -5 -3 -6 -1 -14 5 -18 8
-4 9 -3 5 4 -4 7 -3 12 3 12 5 0 13 -4 16 -10 3 -5 12 -10 18 -10 7 0 4 7 -5
14 -10 7 -18 18 -18 24 0 6 -9 16 -19 21 -14 8 -22 7 -32 -7z"/>
<path d="M12619 8375 c-1 -3 -2 -9 -3 -15 0 -5 -5 -9 -9 -7 -11 3 -41 -53 -33
-60 3 -3 10 5 15 18 9 22 10 22 10 3 1 -11 -8 -29 -19 -39 -11 -10 -20 -23
-19 -29 0 -6 3 -6 6 2 2 6 8 10 13 7 10 -6 0 -55 -11 -55 -5 0 -2 -14 6 -30
15 -29 35 -33 35 -7 0 7 -4 6 -10 -3 -6 -9 -10 -10 -10 -3 0 6 -3 19 -7 29 -4
12 -3 15 6 10 9 -6 10 0 6 21 -6 27 -6 27 9 9 14 -17 16 -17 16 -3 0 9 -8 21
-17 27 -17 9 -17 11 -1 20 12 7 15 20 13 43 -4 25 -2 29 6 17 9 -13 10 -13 6
2 -3 9 -1 19 6 22 9 3 8 5 -1 5 -7 1 -10 6 -7 11 3 6 4 10 1 10 -3 0 -7 -2 -7
-5z"/>
<path d="M12637 8313 c-10 -19 -17 -64 -9 -59 6 3 12 19 14 36 5 30 3 37 -5
23z"/>
<path d="M12887 8289 c4 -13 8 -18 11 -10 2 7 -1 18 -6 23 -8 8 -9 4 -5 -13z"/>
<path d="M12886 8193 c-6 -14 -5 -15 5 -6 7 7 10 15 7 18 -3 3 -9 -2 -12 -12z"/>
<path d="M12609 8133 c-8 -9 -9 -14 -2 -10 6 4 13 2 16 -5 2 -7 3 -5 2 4 -2 9
2 19 9 22 8 3 8 5 0 5 -6 1 -18 -7 -25 -16z"/>
<path d="M12850 8132 c0 -6 -8 -9 -17 -6 -15 5 -16 4 -3 -5 16 -11 40 3 27 16
-4 3 -7 1 -7 -5z"/>
<path d="M10555 7630 c-22 -10 -55 -32 -74 -48 l-35 -29 3 -134 c1 -74 3 -146
4 -161 0 -17 9 -30 24 -37 13 -6 23 -16 23 -22 0 -6 7 -8 16 -5 8 3 13 2 10
-3 -3 -5 1 -12 10 -15 22 -9 26 -8 18 6 -4 7 -3 8 5 4 6 -4 9 -11 6 -16 -9
-15 76 -32 124 -25 60 9 89 25 148 81 26 25 42 42 34 38 -7 -4 -3 7 10 25 27
36 42 161 19 161 -7 0 -10 7 -6 16 7 19 -32 90 -66 119 -37 31 -89 57 -105 51
-8 -3 -11 -1 -8 4 11 18 -117 10 -160 -10z m289 -390 c-6 -6 -10 -3 -10 10 0
13 4 16 10 10 7 -7 7 -13 0 -20z m-79 -60 c-3 -5 -14 -10 -23 -9 -14 0 -13 2
3 9 27 11 27 11 20 0z m-105 -4 c0 -2 -7 -7 -16 -10 -8 -3 -12 -2 -9 4 6 10
25 14 25 6z"/>
<path d="M10568 6213 c-2 -4 -4 -17 -4 -28 1 -16 8 -20 43 -21 23 0 40 3 37 8
-3 5 -9 6 -14 3 -14 -9 -40 7 -38 23 3 16 -17 29 -24 15z m17 -33 c3 -5 1 -10
-4 -10 -6 0 -11 5 -11 10 0 6 2 10 4 10 3 0 8 -4 11 -10z"/>
<path d="M10676 6124 c21 -15 44 -34 51 -43 7 -9 13 -11 13 -5 0 13 -74 74
-91 74 -6 0 6 -12 27 -26z"/>
<path d="M10648 6083 c7 -3 16 -2 19 1 4 3 -2 6 -13 5 -11 0 -14 -3 -6 -6z"/>
<path d="M10750 6062 c0 -6 14 -19 30 -29 17 -9 30 -20 30 -23 0 -4 7 -7 15
-7 12 0 11 4 -4 19 -11 10 -23 18 -27 18 -4 0 -16 7 -26 17 -10 9 -18 11 -18
5z"/>
<path d="M10720 6044 c0 -9 24 -30 42 -37 27 -10 11 18 -18 31 -13 7 -24 9
-24 6z"/>
<path d="M10828 5983 c6 -2 18 -2 25 0 6 3 1 5 -13 5 -14 0 -19 -2 -12 -5z"/>
<path d="M10875 5950 c-3 -5 -1 -10 4 -10 6 0 11 5 11 10 0 6 -2 10 -4 10 -3
0 -8 -4 -11 -10z"/>
<path d="M10909 5946 c9 -11 9 -15 0 -18 -8 -3 -10 -11 -6 -23 9 -21 12 -19
21 16 4 20 1 29 -10 33 -14 5 -15 4 -5 -8z"/>
<path d="M10385 5930 c-3 -5 -1 -10 4 -10 6 0 11 5 11 10 0 6 -2 10 -4 10 -3
0 -8 -4 -11 -10z"/>
<path d="M10930 5912 c0 -5 7 -15 15 -22 8 -7 13 -16 10 -20 -3 -4 2 -11 10
-14 14 -5 14 -2 0 24 -16 30 -35 48 -35 32z"/>
<path d="M10918 5843 c7 -3 16 -2 19 1 4 3 -2 6 -13 5 -11 0 -14 -3 -6 -6z"/>
<path d="M11043 5784 c9 -11 14 -23 11 -26 -3 -3 -1 -9 5 -12 23 -15 18 13 -7
35 -20 18 -22 19 -9 3z"/>
<path d="M11091 5713 c-1 -17 16 -25 25 -12 4 7 3 9 -4 5 -5 -3 -13 0 -15 6
-4 9 -6 10 -6 1z"/>
<path d="M11204 5569 c-3 -6 -2 -15 3 -20 5 -5 9 -1 9 11 0 23 -2 24 -12 9z"/>
<path d="M10496 5508 c3 -5 10 -6 15 -3 13 9 11 12 -6 12 -8 0 -12 -4 -9 -9z"/>
<path d="M11325 5500 c10 -11 20 -20 23 -20 3 0 -3 9 -13 20 -10 11 -20 20
-23 20 -3 0 3 -9 13 -20z"/>
<path d="M10516 5492 c-5 -9 4 -21 30 -35 7 -4 11 2 10 16 -1 22 -29 36 -40
19z m34 -12 c0 -5 -4 -10 -9 -10 -6 0 -13 5 -16 10 -3 6 1 10 9 10 9 0 16 -4
16 -10z"/>
<path d="M10600 5405 c0 -7 39 -12 49 -5 7 4 -1 7 -18 8 -17 0 -31 -1 -31 -3z"/>
<path d="M10650 5370 c8 -5 20 -10 25 -10 6 0 3 5 -5 10 -8 5 -19 10 -25 10
-5 0 -3 -5 5 -10z"/>
<path d="M10766 5305 c7 -18 20 -19 30 -3 4 7 3 8 -4 4 -7 -4 -12 -2 -12 3 0
6 -4 11 -10 11 -5 0 -7 -7 -4 -15z"/>
<path d="M10745 5290 c3 -5 8 -10 11 -10 2 0 4 5 4 10 0 6 -5 10 -11 10 -5 0
-7 -4 -4 -10z"/>
<path d="M10856 5263 c-6 -14 -5 -15 5 -6 7 7 10 15 7 18 -3 3 -9 -2 -12 -12z"/>
<path d="M10832 5235 c15 -16 20 -17 30 -6 11 11 10 13 0 7 -7 -4 -21 -2 -30
5 -15 12 -15 11 0 -6z"/>
<path d="M10900 5182 c-18 -15 -20 -19 -7 -19 10 0 15 3 12 5 -3 3 3 11 13 18
9 7 14 14 11 14 -4 0 -17 -8 -29 -18z"/>
<path d="M10937 5177 c-3 -8 1 -14 8 -14 7 0 11 6 8 14 -3 7 -6 13 -8 13 -2 0
-5 -6 -8 -13z"/>
<path d="M10923 5135 c0 -8 4 -12 9 -9 5 3 6 10 3 15 -9 13 -12 11 -12 -6z"/>
</g>
</svg>
